<svg xmlns="http://www.w3.org/2000/svg" viewBox="0 0 132.27 98.03"><defs><style>.cls-1 { fill: #aaa; }.cls-2 { fill: none; stroke: #aaa; stroke-linecap: round; stroke-miterlimit: 10; stroke-width: 5px; }</style></defs><title>FFWD.digital</title><g id="Laag_2" data-name="Laag 2"><g id="Layer_1" data-name="Layer 1"><path class="cls-1" d="M7.62,21.66a2.63,2.63,0,0,1,1.3.34l43,24.41a2.63,2.63,0,0,1,0,4.57l-43,24.4A2.63,2.63,0,0,1,5,73.09V24.29a2.63,2.63,0,0,1,2.63-2.63m0-4A6.63,6.63,0,0,0,1,24.29v48.8a6.63,6.63,0,0,0,9.9,5.77l43-24.4a6.63,6.63,0,0,0,0-11.53l-43-24.41a6.62,6.62,0,0,0-3.27-.86Z"></path><path class="cls-1" d="M82.65,21.66a2.64,2.64,0,0,1,1.3.34l43,24.4a2.63,2.63,0,0,1,0,4.57l-43,24.4A2.63,2.63,0,0,1,80,73.09V24.29a2.63,2.63,0,0,1,2.63-2.63m0-4A6.63,6.63,0,0,0,76,24.29v48.8a6.63,6.63,0,0,0,9.9,5.76l43-24.39a6.63,6.63,0,0,0,0-11.53l-43-24.4a6.63,6.63,0,0,0-3.27-.86Z"></path><line class="cls-2" x1="2.5" y1="2.5" x2="129.77" y2="2.5"></line><line class="cls-2" x1="2.5" y1="95.53" x2="129.77" y2="95.53"></line></g></g></svg>