<svg version="1.1" x="0px" y="0px" viewBox="0 0 800 600" style="enable-background:new 0 0 800 600;" xml:space="preserve">
<g>
<path class="st3" d="M136.7,21.8c10,0,19.8,2.6,28.5,7.5l394,223.7c18,10.2,29.2,29.5,29.2,50.2c0,20.7-11.2,40-29.3,50.2
		L165.1,577c-8.6,4.9-18.5,7.5-28.5,7.5c-10.2,0-20.2-2.7-29-7.8c-17.7-10.3-28.7-29.4-28.7-49.9V79.5c0-20.5,11-39.6,28.7-49.9
		C116.4,24.5,126.5,21.8,136.7,21.8 M136.7,18.8c-10.6,0-21.1,2.8-30.6,8.2C87.4,37.9,75.9,57.9,75.9,79.5v447.2
		c0,21.6,11.5,41.6,30.2,52.5c9.4,5.5,20,8.2,30.6,8.2c10.3,0,20.7-2.6,30-7.9l394-223.6c19-10.8,30.8-31,30.8-52.8
		c0-21.9-11.7-42-30.8-52.8l-394-223.7C157.3,21.4,147,18.8,136.7,18.8L136.7,18.8z"></path>
</g>
</svg>