<svg xmlns="http://www.w3.org/2000/svg" viewBox="0 0 61.54 61.54"><defs><style>.cls-1{fill:#5573b8;}</style></defs><title>Middel 9</title><g id="Laag_2" data-name="Laag 2"><g id="Layer_1" data-name="Layer 1"><path class="cls-1" d="M52.89,4a4.66,4.66,0,0,1,4.66,4.66V52.89a4.66,4.66,0,0,1-4.66,4.66H8.66A4.66,4.66,0,0,1,4,52.89V8.66A4.66,4.66,0,0,1,8.66,4H52.89m0-4H8.66A8.66,8.66,0,0,0,0,8.66V52.89a8.66,8.66,0,0,0,8.66,8.66H52.89a8.66,8.66,0,0,0,8.66-8.66V8.66A8.66,8.66,0,0,0,52.89,0Z"/></g></g></svg>